<svg width="123" height="20" viewBox="0 0 123 20" fill="none" xmlns="http://www.w3.org/2000/svg">
<g clip-path="url(#clip0_911_393)">
<path d="M8.26639 20C5.59905 20 3.55449 19.3607 2.13269 18.0822C0.710898 16.8037 0 14.9801 0 12.6116C0 10.299 0.662428 8.45192 1.98728 7.07027C3.31214 5.68863 5.16576 4.9978 7.54815 4.9978C9.71022 4.9978 11.3362 5.58699 12.426 6.76537C13.5159 7.94375 14.0608 9.61704 14.0608 11.7853V13.3761H4.40639C4.42905 13.9483 4.5701 14.5096 4.82059 15.0243C5.03924 15.4514 5.36023 15.8173 5.75475 16.0893C6.15429 16.3636 6.60329 16.5572 7.07666 16.6593C7.61934 16.7783 8.17358 16.8361 8.72906 16.8317C9.23779 16.8327 9.74495 16.7749 10.2405 16.6593C10.708 16.5583 11.1641 16.4102 11.602 16.2174C11.9462 16.0636 12.2803 15.8879 12.6023 15.6916C12.9107 15.5016 13.1575 15.3336 13.3514 15.1878H13.8184V18.8246L12.8314 19.2223C12.4311 19.3755 12.0202 19.4996 11.602 19.5935C11.1189 19.719 10.629 19.8164 10.1347 19.8851C9.51527 19.9661 8.89104 20.0045 8.26639 20ZM9.72491 10.6938C9.75487 9.92401 9.52682 9.16636 9.07717 8.54177C8.84138 8.28424 8.5502 8.08394 8.22572 7.95608C7.90124 7.82822 7.55199 7.77614 7.20445 7.80381C6.83368 7.78309 6.46276 7.84172 6.11633 7.97581C5.76989 8.1099 5.45587 8.31638 5.19514 8.58154C4.6894 9.16873 4.40965 9.91789 4.40639 10.6938H9.72491Z" fill="white"/>
<path d="M29.5581 19.62H25.1517V12.5983C25.1517 12.0268 25.1282 11.4583 25.0812 10.8926C25.0651 10.4627 24.9773 10.0385 24.8213 9.63767C24.689 9.33942 24.4567 9.09708 24.1647 8.95274C23.8013 8.79949 23.4086 8.72857 23.0146 8.74505C22.6384 8.74777 22.2656 8.81657 21.913 8.94832C21.4862 9.109 21.0819 9.32437 20.7101 9.58907V19.62H16.3037V5.44854H20.7101V7.02168C21.3531 6.46113 22.0601 5.97904 22.8164 5.58553C23.5306 5.23073 24.3195 5.0534 25.1165 5.06852C26.5588 5.06852 27.6619 5.52514 28.4257 6.43838C29.1895 7.35162 29.5714 8.6773 29.5714 10.4154L29.5581 19.62Z" fill="white"/>
<path d="M37.1147 20C36.122 20.0054 35.1323 19.8912 34.1668 19.6597C33.3747 19.4803 32.6048 19.2135 31.8711 18.8643V15.1348H32.2368C32.4454 15.2938 32.6848 15.4706 32.9551 15.665C33.3071 15.9038 33.682 16.1066 34.0743 16.2704C34.5216 16.476 34.986 16.6416 35.4623 16.7653C36.0104 16.908 36.5749 16.9778 37.1411 16.973C37.6994 16.9831 38.2543 16.8856 38.7759 16.6858C38.9771 16.6297 39.1548 16.5099 39.2827 16.3443C39.4105 16.1787 39.4816 15.9761 39.4853 15.7667C39.4951 15.6266 39.4714 15.4861 39.4162 15.357C39.361 15.2279 39.276 15.1138 39.1681 15.0243C38.7771 14.7858 38.3453 14.6225 37.8946 14.5426C37.5597 14.4572 37.1367 14.3673 36.6256 14.2731C36.161 14.189 35.7019 14.0769 35.2508 13.9372C34.2863 13.6822 33.4177 13.1491 32.7524 12.4039C32.1695 11.6472 31.8728 10.7078 31.9152 9.75253C31.918 9.13636 32.0692 8.52999 32.3558 7.98497C32.6668 7.40005 33.1014 6.8903 33.6292 6.49137C34.2567 6.03016 34.9609 5.68452 35.7091 5.4706C36.6167 5.20788 37.5581 5.08131 38.5027 5.095C39.4203 5.08664 40.3357 5.186 41.2303 5.39106C41.9529 5.55169 42.6562 5.79023 43.3277 6.10251V9.69067H42.9752C42.7459 9.519 42.5076 9.3597 42.2614 9.21342C41.9522 9.02526 41.633 8.85415 41.3052 8.70083C40.9177 8.51519 40.5134 8.36721 40.0978 8.25894C39.6388 8.14922 39.1685 8.09434 38.6966 8.09544C38.1411 8.07861 37.5892 8.19051 37.0839 8.42244C36.8979 8.48614 36.7354 8.60452 36.6175 8.76216C36.4996 8.91979 36.4318 9.10938 36.4229 9.30622C36.4166 9.44872 36.4427 9.59079 36.4992 9.72169C36.5557 9.8526 36.6411 9.96891 36.749 10.0619C37.1775 10.3335 37.6551 10.5182 38.1546 10.6054C38.5306 10.6967 38.9713 10.7866 39.4765 10.8749C39.9558 10.9607 40.4285 11.0803 40.891 11.2329C41.774 11.4816 42.5686 11.9766 43.1823 12.6602C43.7346 13.3827 44.0126 14.2786 43.9666 15.1878C43.9668 15.8484 43.8065 16.499 43.4996 17.0835C43.1856 17.6883 42.7325 18.2094 42.1776 18.6036C41.5321 19.0701 40.8104 19.42 40.0449 19.6376C39.0904 19.8979 38.1037 20.0199 37.1147 20Z" fill="white"/>
<path d="M53.3172 20C50.6499 20 48.6053 19.3607 47.1835 18.0822C45.7617 16.8037 45.045 14.9801 45.0332 12.6116C45.0332 10.2961 45.6956 8.44897 47.0205 7.07027C48.3453 5.69157 50.199 5.00075 52.5814 4.9978C54.7464 4.9978 56.3738 5.58699 57.4636 6.76537C58.5535 7.94374 59.0984 9.61704 59.0984 11.7853V13.3761H49.4396C49.4596 13.9544 49.6007 14.522 49.8538 15.042C50.0724 15.4691 50.3934 15.835 50.788 16.1069C51.1875 16.3813 51.6365 16.5749 52.1099 16.677C52.6525 16.7961 53.2068 16.8539 53.7623 16.8493C54.271 16.8504 54.7782 16.7926 55.2737 16.677C55.7412 16.576 56.1974 16.428 56.6352 16.2351C56.9794 16.0812 57.3135 15.9056 57.6355 15.7092C57.9439 15.5192 58.1907 15.3513 58.3846 15.2055H58.8516V18.8246L57.8646 19.2223C57.4657 19.3755 57.0563 19.4995 56.6396 19.5935C56.1523 19.7209 55.6579 19.8197 55.1591 19.8895C54.5483 19.9678 53.933 20.0048 53.3172 20ZM54.7757 10.6938C54.806 9.92397 54.578 9.16621 54.128 8.54177C53.8924 8.28398 53.6013 8.0835 53.2767 7.95562C52.9522 7.82773 52.6028 7.77581 52.2553 7.80381C51.8823 7.78117 51.5089 7.83886 51.16 7.97301C50.8112 8.10716 50.495 8.31465 50.2327 8.58154C49.7212 9.16798 49.4367 9.91909 49.4308 10.6982L54.7757 10.6938Z" fill="white"/>
<path d="M78.2134 19.62V12.5497C78.2134 11.8515 78.2001 11.2623 78.1737 10.7821C78.1641 10.3816 78.0866 9.98563 77.9446 9.61114C77.8357 9.32631 77.6275 9.09078 77.3585 8.9483C77.0084 8.79212 76.6264 8.72096 76.2437 8.74061C75.8998 8.74204 75.5603 8.81738 75.2479 8.96156C74.8744 9.13648 74.5175 9.34503 74.1815 9.58462V19.62H69.7751V12.5497C69.7751 11.8604 69.7604 11.2712 69.7311 10.7821C69.7174 10.3788 69.6385 9.98032 69.4975 9.6023C69.3883 9.31768 69.1802 9.08226 68.9115 8.93946C68.5694 8.79466 68.2007 8.72376 67.8294 8.73138C67.4582 8.73899 67.0927 8.82495 66.7568 8.98365C66.4077 9.15573 66.0718 9.35365 65.7521 9.57578V19.62H61.3457V5.44852H65.7521V7.02165C66.3777 6.47351 67.0584 5.9922 67.7834 5.58551C68.4438 5.2345 69.182 5.05665 69.9294 5.06849C70.7293 5.05202 71.5171 5.26679 72.1986 5.68714C72.8768 6.12369 73.4021 6.76172 73.7012 7.51215C74.4238 6.81397 75.2253 6.20296 76.0895 5.69156C76.78 5.28266 77.5657 5.0632 78.3676 5.05524C78.9698 5.04409 79.5685 5.15066 80.1301 5.36898C80.641 5.57146 81.0948 5.8961 81.4521 6.31463C81.8547 6.78811 82.1548 7.34038 82.3333 7.93637C82.5518 8.7348 82.6513 9.56124 82.6286 10.3889V19.62H78.2134Z" fill="white"/>
<path d="M99.7829 12.3376C99.7829 14.5913 99.2115 16.4133 98.0688 17.8038C97.5704 18.4575 96.9271 18.9858 96.1898 19.3471C95.4525 19.7083 94.6416 19.8925 93.8211 19.8851C93.2005 19.8963 92.5816 19.8174 91.9836 19.6509C91.407 19.4676 90.8528 19.22 90.3312 18.9129L90.1417 19.62H85.9248V0H90.3312V6.93327C90.9355 6.40744 91.5995 5.95505 92.3097 5.58551C93.0341 5.22816 93.8335 5.05083 94.6406 5.06849C95.3865 5.0369 96.1279 5.19738 96.7944 5.53465C97.4608 5.87191 98.03 6.37471 98.4478 6.99514C99.3349 8.28252 99.78 10.0633 99.7829 12.3376ZM95.2663 12.4392C95.2663 11.034 95.0519 10.0295 94.623 9.42554C94.3938 9.12459 94.093 8.88603 93.7482 8.73165C93.4033 8.57727 93.0254 8.51198 92.649 8.54176C92.2493 8.54357 91.8524 8.60767 91.4724 8.73177C91.069 8.86161 90.685 9.04595 90.3312 9.27972V16.35C90.6143 16.4648 90.9102 16.5449 91.2125 16.5886C91.5045 16.6289 91.7989 16.6496 92.0937 16.6505C92.5469 16.6828 93.001 16.6034 93.4165 16.4193C93.832 16.2352 94.1963 15.952 94.4776 15.5943C95.0005 14.8962 95.2634 13.8445 95.2663 12.4392Z" fill="white"/>
<path d="M106.595 19.62H102.188V0H106.595V19.62Z" fill="white"/>
<path d="M117.21 20C114.542 20 112.498 19.3607 111.076 18.0822C109.654 16.8036 108.943 14.9816 108.943 12.616C108.943 10.3005 109.606 8.45337 110.931 7.07467C112.255 5.69597 114.109 5.00514 116.492 5.0022C118.654 5.0022 120.281 5.59139 121.374 6.76976C122.467 7.94814 123.011 9.62144 123.009 11.7896V13.3805H113.341C113.362 13.9591 113.505 14.5268 113.76 15.0464C113.978 15.4736 114.299 15.8396 114.694 16.1113C115.093 16.3856 115.542 16.5792 116.016 16.6814C116.558 16.8005 117.113 16.8583 117.668 16.8537C118.177 16.8548 118.684 16.797 119.179 16.6814C119.647 16.5803 120.103 16.4322 120.541 16.2395C120.885 16.0853 121.219 15.9097 121.541 15.7136C121.845 15.5236 122.096 15.3557 122.29 15.2099H122.757V18.8246L121.77 19.2223C121.37 19.3754 120.959 19.4995 120.541 19.5935C120.055 19.7207 119.562 19.8196 119.065 19.8895C118.45 19.9684 117.83 20.0053 117.21 20ZM118.664 10.6938C118.693 9.92403 118.465 9.16649 118.016 8.54175C117.78 8.28422 117.489 8.08392 117.165 7.95606C116.84 7.82819 116.491 7.77612 116.143 7.80379C115.771 7.78179 115.399 7.83979 115.051 7.97392C114.702 8.10805 114.387 8.31521 114.125 8.58152C113.614 9.16817 113.33 9.91914 113.323 10.6982L118.664 10.6938Z" fill="white"/>
</g>
<defs>
<clipPath id="clip0_911_393">
<rect width="123" height="20" fill="white"/>
</clipPath>
</defs>
</svg>
